HIERARCHY
ROOT hip
{
  OFFSET 0 90.174 2.4664
  CHANNELS 6 Xposition Yposition Zposition Zrotation Xrotation Yrotation
  JOINT abdomen
  {
    OFFSET 0 -1.186 -1.5018
    CHANNELS 6 Xposition Yposition Zposition Zrotation Xrotation Yrotation
    JOINT abdomen2
    {
      OFFSET 0 9.964 0.2134
      CHANNELS 6 Xposition Yposition Zposition Zrotation Xrotation Yrotation
      JOINT chest
      {
        OFFSET 0 13.134 -3.2573
        CHANNELS 6 Xposition Yposition Zposition Zrotation Xrotation Yrotation
        JOINT neck
        {
          OFFSET 0 20.686 -1.6905
          CHANNELS 6 Xposition Yposition Zposition Zrotation Xrotation Yrotation
          JOINT head
          {
            OFFSET 0 7.238 -0.1237
            CHANNELS 6 Xposition Yposition Zposition Zrotation Xrotation Yrotation
            End Site
            {
              OFFSET 0 0 0
            }
          }
        }
        JOINT lCollar
        {
          OFFSET 1.7069 20.075 5.0056
          CHANNELS 6 Xposition Yposition Zposition Zrotation Xrotation Yrotation
          JOINT lShldr
          {
            OFFSET 13.6458 -0.047 -4.849
            CHANNELS 6 Xposition Yposition Zposition Zrotation Xrotation Yrotation
            JOINT lForeArm
            {
              OFFSET 28.3255 -0.9759 2.2888
              CHANNELS 6 Xposition Yposition Zposition Zrotation Xrotation Yrotation
              JOINT lHand
              {
                OFFSET 22.1583 -0.53 10.8316
                CHANNELS 6 Xposition Yposition Zposition Zrotation Xrotation Yrotation
                JOINT lThumb1
                {
                  OFFSET 0.786 0.112 2.5817
                  CHANNELS 6 Xposition Yposition Zposition Zrotation Xrotation Yrotation
                  JOINT lThumb2
                  {
                    OFFSET 0.3601 -0.878 4.2331
                    CHANNELS 6 Xposition Yposition Zposition Zrotation Xrotation Yrotation
                    JOINT lThumb2_End
                    {
                      OFFSET 1.8127 -1.216 2.2227
                      CHANNELS 6 Xposition Yposition Zposition Zrotation Xrotation Yrotation
                      End Site
                      {
                        OFFSET 0.0181 -0.0122 0.0222
                      }
                    }
                  }
                }
                JOINT lCarpal1
                {
                  OFFSET 0.9571 1.114 1.7695
                  CHANNELS 6 Xposition Yposition Zposition Zrotation Xrotation Yrotation
                  JOINT lIndex1
                  {
                    OFFSET 4.1246 0.487 4.1451
                    CHANNELS 6 Xposition Yposition Zposition Zrotation Xrotation Yrotation
                    JOINT lIndex2
                    {
                      OFFSET 3.4052 -1.454 2.7682
                      CHANNELS 6 Xposition Yposition Zposition Zrotation Xrotation Yrotation
                      JOINT lIndex2_End
                      {
                        OFFSET 1.4531 -1.795 1.2713
                        CHANNELS 6 Xposition Yposition Zposition Zrotation Xrotation Yrotation
                        End Site
                        {
                          OFFSET 0.0145 -0.0179 0.0127
                        }
                      }
                    }
                  }
                  JOINT lMid1
                  {
                    OFFSET 5.6954 0.21 2.1184
                    CHANNELS 6 Xposition Yposition Zposition Zrotation Xrotation Yrotation
                    JOINT lMid2
                    {
                      OFFSET 3.9766 -1.54 2.3863
                      CHANNELS 6 Xposition Yposition Zposition Zrotation Xrotation Yrotation
                      JOINT lMid2_End
                      {
                        OFFSET 1.4042 -1.926 1.125
                        CHANNELS 6 Xposition Yposition Zposition Zrotation Xrotation Yrotation
                        End Site
                        {
                          OFFSET 0.014 -0.0193 0.0113
                        }
                      }
                    }
                  }
                }
                JOINT lCarpal2
                {
                  OFFSET 2.0956 0.66 -0.3894
                  CHANNELS 6 Xposition Yposition Zposition Zrotation Xrotation Yrotation
                  JOINT lRing1
                  {
                    OFFSET 5.0395 -0.09 2.4971
                    CHANNELS 6 Xposition Yposition Zposition Zrotation Xrotation Yrotation
                    JOINT lRing2
                    {
                      OFFSET 3.7921 -1.552 1.4806
                      CHANNELS 6 Xposition Yposition Zposition Zrotation Xrotation Yrotation
                      JOINT lRing2_End
                      {
                        OFFSET 1.4655 -1.808 0.9609
                        CHANNELS 6 Xposition Yposition Zposition Zrotation Xrotation Yrotation
                        End Site
                        {
                          OFFSET 0.0147 -0.0181 0.0096
                        }
                      }
                    }
                  }
                  JOINT lPinky1
                  {
                    OFFSET 4.9141 -1.269 0.3591
                    CHANNELS 6 Xposition Yposition Zposition Zrotation Xrotation Yrotation
                    JOINT lPinky2
                    {
                      OFFSET 3.1477 -1.685 0.8462
                      CHANNELS 6 Xposition Yposition Zposition Zrotation Xrotation Yrotation
                      JOINT lPinky2_End
                      {
                        OFFSET 0.8055 -1.585 0.7955
                        CHANNELS 6 Xposition Yposition Zposition Zrotation Xrotation Yrotation
                        End Site
                        {
                          OFFSET 0.0081 -0.0158 0.008
                        }
                      }
                    }
                  }
                }
              }
            }
          }
        }
        JOINT rCollar
        {
          OFFSET -1.7069 20.075 5.0056
          CHANNELS 6 Xposition Yposition Zposition Zrotation Xrotation Yrotation
          JOINT rShldr
          {
            OFFSET -13.6458 -0.047 -4.849
            CHANNELS 6 Xposition Yposition Zposition Zrotation Xrotation Yrotation
            JOINT rForeArm
            {
              OFFSET -28.3255 -0.9759 2.2888
              CHANNELS 6 Xposition Yposition Zposition Zrotation Xrotation Yrotation
              JOINT rHand
              {
                OFFSET -22.1583 -0.53 10.8316
                CHANNELS 6 Xposition Yposition Zposition Zrotation Xrotation Yrotation
                JOINT rThumb1
                {
                  OFFSET -0.786 0.112 2.5817
                  CHANNELS 6 Xposition Yposition Zposition Zrotation Xrotation Yrotation
                  JOINT rThumb2
                  {
                    OFFSET -0.3601 -0.878 4.2331
                    CHANNELS 6 Xposition Yposition Zposition Zrotation Xrotation Yrotation
                    JOINT rThumb2_End
                    {
                      OFFSET -1.8127 -1.216 2.2227
                      CHANNELS 6 Xposition Yposition Zposition Zrotation Xrotation Yrotation
                      End Site
                      {
                        OFFSET -0.0181 -0.0122 0.0222
                      }
                    }
                  }
                }
                JOINT rCarpal1
                {
                  OFFSET -0.9571 1.114 1.7695
                  CHANNELS 6 Xposition Yposition Zposition Zrotation Xrotation Yrotation
                  JOINT rIndex1
                  {
                    OFFSET -4.1246 0.487 4.1451
                    CHANNELS 6 Xposition Yposition Zposition Zrotation Xrotation Yrotation
                    JOINT rIndex2
                    {
                      OFFSET -3.4052 -1.454 2.7682
                      CHANNELS 6 Xposition Yposition Zposition Zrotation Xrotation Yrotation
                      JOINT rIndex2_End
                      {
                        OFFSET -1.4531 -1.795 1.2713
                        CHANNELS 6 Xposition Yposition Zposition Zrotation Xrotation Yrotation
                        End Site
                        {
                          OFFSET -0.0145 -0.018 0.0127
                        }
                      }
                    }
                  }
                  JOINT rMid1
                  {
                    OFFSET -5.6954 0.21 2.1184
                    CHANNELS 6 Xposition Yposition Zposition Zrotation Xrotation Yrotation
                    JOINT rMid2
                    {
                      OFFSET -3.9766 -1.54 2.3863
                      CHANNELS 6 Xposition Yposition Zposition Zrotation Xrotation Yrotation
                      JOINT rMid2_End
                      {
                        OFFSET -1.4042 -1.926 1.125
                        CHANNELS 6 Xposition Yposition Zposition Zrotation Xrotation Yrotation
                        End Site
                        {
                          OFFSET -0.014 -0.0193 0.0113
                        }
                      }
                    }
                  }
                }
                JOINT rCarpal2
                {
                  OFFSET -2.0956 0.66 -0.3894
                  CHANNELS 6 Xposition Yposition Zposition Zrotation Xrotation Yrotation
                  JOINT rRing1
                  {
                    OFFSET -5.0395 -0.09 2.4971
                    CHANNELS 6 Xposition Yposition Zposition Zrotation Xrotation Yrotation
                    JOINT rRing2
                    {
                      OFFSET -3.7921 -1.552 1.4806
                      CHANNELS 6 Xposition Yposition Zposition Zrotation Xrotation Yrotation
                      JOINT rRing2_End
                      {
                        OFFSET -1.4655 -1.808 0.9609
                        CHANNELS 6 Xposition Yposition Zposition Zrotation Xrotation Yrotation
                        End Site
                        {
                          OFFSET -0.0147 -0.0181 0.0096
                        }
                      }
                    }
                  }
                  JOINT rPinky1
                  {
                    OFFSET -4.9141 -1.269 0.3592
                    CHANNELS 6 Xposition Yposition Zposition Zrotation Xrotation Yrotation
                    JOINT rPinky2
                    {
                      OFFSET -3.1477 -1.685 0.8462
                      CHANNELS 6 Xposition Yposition Zposition Zrotation Xrotation Yrotation
                      JOINT rPinky2_End
                      {
                        OFFSET -0.8055 -1.585 0.7955
                        CHANNELS 6 Xposition Yposition Zposition Zrotation Xrotation Yrotation
                        End Site
                        {
                          OFFSET -0.0081 -0.0158 0.008
                        }
                      }
                    }
                  }
                }
              }
            }
          }
        }
      }
    }
  }
  JOINT lThigh
  {
    OFFSET 8.367 -8.2066 0.5982
    CHANNELS 6 Xposition Yposition Zposition Zrotation Xrotation Yrotation
    JOINT lShin
    {
      OFFSET 2.1923 -43.463 -0.4932
      CHANNELS 6 Xposition Yposition Zposition Zrotation Xrotation Yrotation
      JOINT lFoot
      {
        OFFSET 0.7333 -45.8593 -2.6451
        CHANNELS 6 Xposition Yposition Zposition Zrotation Xrotation Yrotation
        End Site
        {
          OFFSET 2.6618 -4.2699 12.3931
        }
      }
    }
  }
  JOINT rThigh
  {
    OFFSET -8.367 -8.2066 0.5982
    CHANNELS 6 Xposition Yposition Zposition Zrotation Xrotation Yrotation
    JOINT rShin
    {
      OFFSET -2.1923 -43.463 -0.4931
      CHANNELS 6 Xposition Yposition Zposition Zrotation Xrotation Yrotation
      JOINT rFoot
      {
        OFFSET -0.7333 -45.8593 -2.6451
        CHANNELS 6 Xposition Yposition Zposition Zrotation Xrotation Yrotation
        End Site
        {
          OFFSET -2.6618 -4.2699 12.3931
        }
      }
    }
  }
}
MOTION
Frames:	4
Frame Time:	0.0333333
0 90.174 2.4664 0 0 -0 0 -1.186 -1.5018 0 0 -0 0 9.964 0.2134 0 0 -0 0 13.134 -3.2573 0 0 -0 0 20.686 -1.6905 0 0 -0 0 7.238 -0.1237 0 0 -0 1.7069 20.075 5.0056 0 0 -0 13.6458 -0.047 -4.849 1.66051 0.0835086 5.75766 28.3255 -0.9759 2.2888 -0.0175111 0.895433 15.7816 22.1583 -0.53 10.8316 7.95139e-016 -1.98785e-016 -0 0.786 0.112 2.5817 5.46658e-016 -3.97569e-016 -0 0.3601 -0.878 4.2331 5.96354e-016 0 -0 1.8127 -1.216 2.2227 3.97569e-016 1.98785e-016 9.54166e-015 0.9571 1.114 1.7695 1.49089e-016 -3.97569e-016 -0 4.1246 0.487 4.1451 6.4605e-016 0 3.18055e-015 3.4052 -1.454 2.7682 5.96354e-016 0 3.18055e-015 1.4531 -1.795 1.2713 8.94531e-016 -1.98785e-016 6.36111e-015 5.6954 0.21 2.1184 6.4605e-016 0 3.18055e-015 3.9766 -1.54 2.3863 5.96354e-016 0 3.18055e-015 1.4042 -1.926 1.125 8.94531e-016 -1.98785e-016 6.36111e-015 2.0956 0.66 -0.3894 1.49089e-016 -3.97569e-016 -0 5.0395 -0.09 2.4971 6.4605e-016 0 3.18055e-015 3.7921 -1.552 1.4806 5.96354e-016 0 3.18055e-015 1.4655 -1.808 0.9609 8.94531e-016 -1.98785e-016 6.36111e-015 4.9141 -1.269 0.3591 6.4605e-016 0 3.18055e-015 3.1477 -1.685 0.8462 5.96354e-016 0 3.18055e-015 0.8055 -1.585 0.7955 8.94531e-016 -1.98785e-016 6.36111e-015 -1.7069 20.075 5.0056 0 0 -0 -13.6458 -0.047 -4.849 -1.4496 0.0636048 -5.0245 -28.3255 -0.9759 2.2888 -1.74811 1.20616 -16.8394 -22.1583 -0.53 10.8316 -1.19271e-015 1.98785e-016 -3.18055e-015 -0.786 0.112 2.5817 -3.97569e-016 1.98785e-016 -3.18055e-015 -0.3601 -0.878 4.2331 -2.98177e-016 1.98785e-016 -3.18055e-015 -1.8127 -1.216 2.2227 -2.98177e-016 3.97569e-016 -0 -0.9571 1.114 1.7695 4.96962e-016 0 -6.36111e-015 -4.1246 0.487 4.1451 -9.93923e-017 3.97569e-016 -0 -3.4052 -1.454 2.7682 -8.94531e-016 5.96354e-016 -0 -1.4531 -1.795 1.2713 -3.97569e-016 3.97569e-016 -0 -5.6954 0.21 2.1184 -9.93923e-017 3.97569e-016 -0 -3.9766 -1.54 2.3863 -8.94531e-016 5.96354e-016 -0 -1.4042 -1.926 1.125 -3.97569e-016 3.97569e-016 -0 -2.0956 0.66 -0.3894 4.96962e-016 0 -6.36111e-015 -5.0395 -0.09 2.4971 -9.93923e-017 3.97569e-016 -0 -3.7921 -1.552 1.4806 -8.94531e-016 5.96354e-016 -0 -1.4655 -1.808 0.9609 -3.97569e-016 3.97569e-016 -0 -4.9141 -1.269 0.3592 -9.93923e-017 3.97569e-016 -0 -3.1477 -1.685 0.8462 -8.94531e-016 5.96354e-016 -0 -0.8055 -1.585 0.7955 -3.97569e-016 3.97569e-016 -0 8.367 -8.2066 0.5982 -4.66115 -1.03232 0.120763 2.1923 -43.463 -0.4932 0.00990601 1.55097 0.177175 0.7333 -45.8593 -2.6451 4.65196 -0.54114 -0.255042 -8.367 -8.2066 0.5982 4.66115 -1.03222 -0.120763 -2.1923 -43.463 -0.4931 -0.00990459 1.5509 -0.177176 -0.7333 -45.8593 -2.6451 -4.65196 -0.541171 0.255041 
31.3411 27.8815 -2.49381 -0 -18.5194 -0 0 -1.186 -1.5018 -0.00723153 -2.26975 -0.0965337 3.55271e-015 9.964 0.2134 -0.0183153 -4.53948 -0.193583 -3.55271e-015 13.134 -3.2573 -0.0183154 -4.53948 -0.193583 0 20.686 -1.6905 -5.17774e-006 13.3559 2.38103e-006 0 7.238 -0.1237 1.29695e-008 6.70749 2.69672e-008 1.7069 20.075 5.0056 -10.2384 10.6533 2.65087 13.6458 -0.047 -4.849 -47.2065 -8.0066 -24.6734 28.3255 -0.9759 2.2888 12.7558 22.218 -1.59226 22.1583 -0.53 10.8316 -37.3903 22.3594 9.33664 0.786 0.112 2.5817 6.36111e-015 3.18055e-015 -0 0.3601 -0.878 4.2331 5.76509e-007 -1.3633e-006 -8.237e-007 1.8127 -1.216 2.2227 3.18055e-015 0 -9.54166e-015 0.9571 1.114 1.7695 3.18055e-015 3.18055e-015 -0 4.1246 0.487 4.1451 -6.36111e-015 0 -0 3.4052 -1.454 2.7682 5.76509e-007 -1.3633e-006 -8.237e-007 1.4531 -1.795 1.2713 -1.59028e-015 9.54166e-015 -9.54166e-015 5.6954 0.21 2.1184 -6.36111e-015 0 -0 3.9766 -1.54 2.3863 5.76509e-007 -1.3633e-006 -8.237e-007 1.4042 -1.926 1.125 -1.59028e-015 9.54166e-015 -9.54166e-015 2.0956 0.66 -0.3894 3.18055e-015 3.18055e-015 -0 5.0395 -0.09 2.4971 -6.36111e-015 0 -0 3.7921 -1.552 1.4806 5.76509e-007 -1.3633e-006 -8.237e-007 1.4655 -1.808 0.9609 -1.59028e-015 9.54166e-015 -9.54166e-015 4.9141 -1.269 0.3591 -6.36111e-015 0 -0 3.1477 -1.685 0.8462 5.76509e-007 -1.3633e-006 -8.237e-007 0.8055 -1.585 0.7955 -1.59028e-015 9.54166e-015 -9.54166e-015 -1.7069 20.075 5.0056 10.2651 10.4449 -2.48133 -13.6458 -0.047 -4.849 47.1046 -8.06741 25.1629 -28.3255 -0.9759 2.2888 -14.653 22.0173 1.48324 -22.1583 -0.53 10.8316 37.5218 22.9754 -9.27266 -0.786 0.112 2.5817 -8.82781e-031 1.59028e-014 3.18055e-015 -0.3601 -0.878 4.2331 2.80949e-007 6.90848e-007 -4.03267e-007 -1.8127 -1.216 2.2227 2.80949e-007 6.90848e-007 -4.03267e-007 -0.9571 1.114 1.7695 -3.53113e-031 6.36111e-015 3.18055e-015 -4.1246 0.487 4.1451 -9.54166e-015 -9.54166e-015 3.18055e-015 -3.4052 -1.454 2.7682 2.80949e-007 6.90848e-007 -4.03267e-007 -1.4531 -1.795 1.2713 2.80949e-007 6.90848e-007 -4.03267e-007 -5.6954 0.21 2.1184 -9.54166e-015 -9.54166e-015 3.18055e-015 -3.9766 -1.54 2.3863 2.80949e-007 6.90848e-007 -4.03267e-007 -1.4042 -1.926 1.125 2.80949e-007 6.90848e-007 -4.03267e-007 -2.0956 0.66 -0.3894 -3.53113e-031 6.36111e-015 3.18055e-015 -5.0395 -0.09 2.4971 -9.54166e-015 -9.54166e-015 3.18055e-015 -3.7921 -1.552 1.4806 2.80949e-007 6.90848e-007 -4.03267e-007 -1.4655 -1.808 0.9609 2.80949e-007 6.90848e-007 -4.03267e-007 -4.9141 -1.269 0.3592 -9.54166e-015 -9.54166e-015 3.18055e-015 -3.1477 -1.685 0.8462 2.80949e-007 6.90848e-007 -4.03267e-007 -0.8055 -1.585 0.7955 2.80949e-007 6.90848e-007 -4.03267e-007 8.367 -8.2066 0.5982 26.4963 -67.2938 85.1886 2.1923 -43.463 -0.4932 -1.02027 36.7131 2.36949 0.7333 -45.8593 -2.6451 4.82032 15.1402 4.26217 -8.367 -8.2066 0.5982 -26.5273 -67.3008 -85.2353 -2.1923 -43.463 -0.4931 0.99324 36.7082 -2.36512 -0.7333 -45.8593 -2.6451 -4.82119 15.1342 -4.25707 
45.4446 1.02694 -2.6746 -0 -26.8531 -0 0 -1.186 -1.5018 -0.0114521 -3.20733 -0.140319 0 9.964 0.2134 -0.0308585 -6.41463 -0.281947 0 13.134 -3.2573 -0.0308586 -6.41465 -0.281947 -7.10543e-015 20.686 -1.6905 -1.27754e-005 19.2513 2.35076e-006 -7.10543e-015 7.238 -0.1237 8.6896e-008 9.51859 -1.20014e-007 1.7069 20.075 5.0056 -15.0542 15.1166 3.62435 13.6458 -0.047 -4.849 -71.6118 -9.91621 -38.7451 28.3255 -0.9759 2.2888 23.1036 29.845 -11.3982 22.1583 -0.53 10.8316 -56.8584 30.8968 16.8628 0.786 0.112 2.5817 -0 0 4.77083e-015 0.3601 -0.878 4.2331 1.0147e-006 -1.08603e-006 -8.10822e-007 1.8127 -1.216 2.2227 -3.18055e-015 -6.36111e-015 -1.59028e-015 0.9571 1.114 1.7695 -3.18055e-015 0 1.59028e-015 4.1246 0.487 4.1451 -1.94212e-030 6.36111e-015 1.74931e-014 3.4052 -1.454 2.7682 1.0147e-006 -1.08603e-006 -8.10822e-007 1.4531 -1.795 1.2713 3.18055e-015 -1.59028e-015 1.59028e-015 5.6954 0.21 2.1184 -1.94212e-030 6.36111e-015 1.74931e-014 3.9766 -1.54 2.3863 1.0147e-006 -1.08603e-006 -8.10822e-007 1.4042 -1.926 1.125 3.18055e-015 -1.59028e-015 1.59028e-015 2.0956 0.66 -0.3894 -3.18055e-015 0 1.59028e-015 5.0395 -0.09 2.4971 -1.94212e-030 6.36111e-015 1.74931e-014 3.7921 -1.552 1.4806 1.0147e-006 -1.08603e-006 -8.10822e-007 1.4655 -1.808 0.9609 3.18055e-015 -1.59028e-015 1.59028e-015 4.9141 -1.269 0.3591 -1.94212e-030 6.36111e-015 1.74931e-014 3.1477 -1.685 0.8462 1.0147e-006 -1.08603e-006 -8.10822e-007 0.8055 -1.585 0.7955 3.18055e-015 -1.59028e-015 1.59028e-015 -1.7069 20.075 5.0056 15.0713 14.8233 -3.36662 -13.6458 -0.047 -4.849 71.3818 -10.0005 39.1267 -28.3255 -0.9759 2.2888 -25.1141 29.354 11.6604 -22.1583 -0.53 10.8316 57.1756 31.7948 -16.9211 -0.786 0.112 2.5817 3.18055e-015 -1.59028e-015 -6.36111e-015 -0.3601 -0.878 4.2331 9.58221e-007 -1.04273e-006 8.45275e-007 -1.8127 -1.216 2.2227 -3.18055e-015 -4.77083e-015 -7.95139e-015 -0.9571 1.114 1.7695 3.18055e-015 -1.59028e-015 -4.77083e-015 -4.1246 0.487 4.1451 1.59028e-014 -6.36111e-015 -0 -3.4052 -1.454 2.7682 9.58221e-007 -1.04273e-006 8.45275e-007 -1.4531 -1.795 1.2713 6.36111e-015 0 -3.18055e-015 -5.6954 0.21 2.1184 1.59028e-014 -6.36111e-015 -0 -3.9766 -1.54 2.3863 9.58221e-007 -1.04273e-006 8.45275e-007 -1.4042 -1.926 1.125 6.36111e-015 0 -3.18055e-015 -2.0956 0.66 -0.3894 3.18055e-015 -1.59028e-015 -4.77083e-015 -5.0395 -0.09 2.4971 1.59028e-014 -6.36111e-015 -0 -3.7921 -1.552 1.4806 9.58221e-007 -1.04273e-006 8.45275e-007 -1.4655 -1.808 0.9609 6.36111e-015 0 -3.18055e-015 -4.9141 -1.269 0.3592 1.59028e-014 -6.36111e-015 -0 -3.1477 -1.685 0.8462 9.58221e-007 -1.04273e-006 8.45275e-007 -0.8055 -1.585 0.7955 6.36111e-015 0 -3.18055e-015 8.367 -8.2066 0.5982 59.1945 -44.2179 130.094 2.1923 -43.463 -0.4932 -1.51368 49.863 2.44555 0.7333 -45.8593 -2.6451 4.64013 22.6306 7.67631 -8.367 -8.2066 0.5982 -59.2006 -44.2046 -130.121 -2.1923 -43.463 -0.4931 1.47613 49.853 -2.44223 -0.7333 -45.8593 -2.6451 -4.64573 22.6238 -7.66722 
42.3105 6.85969 -2.77141 -0 -25.0011 -0 0 -1.186 -1.5018 -0.0113765 -2.81267 -0.130444 1.42109e-014 9.964 0.2134 -0.0292262 -5.62527 -0.261922 0 13.134 -3.2573 -0.0292262 -5.62526 -0.261923 0 20.686 -1.6905 1.78178e-006 17.6846 2.99277e-007 -1.42109e-014 7.238 -0.1237 -5.3775e-008 8.43322 -9.46877e-008 1.7069 20.075 5.0056 -13.7188 13.4284 2.75634 13.6458 -0.047 -4.849 -65.9111 -9.8563 -35.6781 28.3255 -0.9759 2.2888 20.3249 28.4506 -8.69297 22.1583 -0.53 10.8316 -52.0425 28.9855 14.4888 0.786 0.112 2.5817 -9.54166e-015 -3.18055e-015 4.77083e-015 0.3601 -0.878 4.2331 3.18055e-015 3.18055e-015 -1.59028e-015 1.8127 -1.216 2.2227 9.24253e-007 -1.14858e-006 -8.3147e-007 0.9571 1.114 1.7695 -9.54166e-015 -3.18055e-015 6.36111e-015 4.1246 0.487 4.1451 3.18055e-015 1.27222e-014 4.77083e-015 3.4052 -1.454 2.7682 2.64834e-031 3.18055e-015 -4.77083e-015 1.4531 -1.795 1.2713 9.24253e-007 -1.14858e-006 -8.3147e-007 5.6954 0.21 2.1184 3.18055e-015 1.27222e-014 4.77083e-015 3.9766 -1.54 2.3863 2.64834e-031 3.18055e-015 -4.77083e-015 1.4042 -1.926 1.125 9.24253e-007 -1.14858e-006 -8.3147e-007 2.0956 0.66 -0.3894 -9.54166e-015 -3.18055e-015 6.36111e-015 5.0395 -0.09 2.4971 3.18055e-015 1.27222e-014 4.77083e-015 3.7921 -1.552 1.4806 2.64834e-031 3.18055e-015 -4.77083e-015 1.4655 -1.808 0.9609 9.24253e-007 -1.14858e-006 -8.3147e-007 4.9141 -1.269 0.3591 3.18055e-015 1.27222e-014 4.77083e-015 3.1477 -1.685 0.8462 2.64834e-031 3.18055e-015 -4.77083e-015 0.8055 -1.585 0.7955 9.24253e-007 -1.14858e-006 -8.3147e-007 -1.7069 20.075 5.0056 13.7527 13.1677 -2.50883 -13.6458 -0.047 -4.849 65.7058 -9.94028 36.0839 -28.3255 -0.9759 2.2888 -22.311 28.0436 8.87942 -22.1583 -0.53 10.8316 52.2864 29.7997 -14.4866 -0.786 0.112 2.5817 1.89203e-006 -2.40549e-006 8.18279e-007 -0.3601 -0.878 4.2331 -4.54702e-007 -5.86683e-007 4.09298e-007 -1.8127 -1.216 2.2227 0 0 -0 -0.9571 1.114 1.7695 -3.18055e-015 0 3.18055e-015 -4.1246 0.487 4.1451 1.89203e-006 -2.40549e-006 8.18279e-007 -3.4052 -1.454 2.7682 -4.54702e-007 -5.86683e-007 4.09298e-007 -1.4531 -1.795 1.2713 -9.54166e-015 0 -4.77083e-015 -5.6954 0.21 2.1184 1.89203e-006 -2.40549e-006 8.18279e-007 -3.9766 -1.54 2.3863 -4.54702e-007 -5.86683e-007 4.09298e-007 -1.4042 -1.926 1.125 -9.54166e-015 0 -4.77083e-015 -2.0956 0.66 -0.3894 -3.18055e-015 0 3.18055e-015 -5.0395 -0.09 2.4971 1.89203e-006 -2.40549e-006 8.18279e-007 -3.7921 -1.552 1.4806 -4.54702e-007 -5.86683e-007 4.09298e-007 -1.4655 -1.808 0.9609 -9.54166e-015 0 -4.77083e-015 -4.9141 -1.269 0.3592 1.89203e-006 -2.40549e-006 8.18279e-007 -3.1477 -1.685 0.8462 -4.54702e-007 -5.86683e-007 4.09298e-007 -0.8055 -1.585 0.7955 -9.54166e-015 0 -4.77083e-015 8.367 -8.2066 0.5982 57.0089 -50.7183 126.053 2.1923 -43.463 -0.4932 -1.4286 46.5459 2.25432 0.7333 -45.8593 -2.6451 4.7041 21.0563 7.06236 -8.367 -8.2066 0.5982 -57.0209 -50.7076 -126.085 -2.1923 -43.463 -0.4931 1.39417 46.5385 -2.25225 -0.7333 -45.8593 -2.6451 -4.70853 21.0499 -7.0542 
